<svg width="136" height="107" viewBox="0 0 136 107" fill="none" xmlns="http://www.w3.org/2000/svg">
<path d="M79.4222 54.9657C79.4222 61.8528 78.4717 67.9802 76.5708 73.3481C74.7699 78.716 72.1186 83.2736 68.6169 87.021C65.2152 90.6671 61.0632 93.4523 56.1608 95.3766C51.2584 97.1997 45.7056 98.1112 39.5026 98.1112C33.7998 98.1112 28.4972 97.1997 23.5948 95.3766C18.7924 93.4523 14.6404 90.6671 11.1387 87.021C7.63694 83.2736 4.88559 78.716 2.8846 73.3481C0.983669 67.9802 0.0332031 61.8528 0.0332031 54.9657C0.0332031 45.7491 1.63399 38.0012 4.83556 31.7218C8.03713 25.3411 12.6394 20.4797 18.6423 17.1374C24.6453 13.7951 31.7488 12.124 39.9528 12.124C47.6566 12.124 54.4599 13.7951 60.3628 17.1374C66.2657 20.4797 70.918 25.3411 74.3197 31.7218C77.7214 38.0012 79.4222 45.7491 79.4222 54.9657ZM22.8444 54.9657C22.8444 60.4348 23.3947 65.0431 24.4952 68.7905C25.6958 72.4366 27.5467 75.2218 30.048 77.1461C32.5492 78.9692 35.8008 79.8807 39.8027 79.8807C43.8047 79.8807 47.0063 78.9692 49.4075 77.1461C51.9087 75.2218 53.7096 72.4366 54.8101 68.7905C56.0107 65.0431 56.611 60.4348 56.611 54.9657C56.611 49.4965 56.0107 44.9389 54.8101 41.2928C53.7096 37.6467 51.9087 34.9121 49.4075 33.0891C46.9062 31.266 43.6546 30.3545 39.6527 30.3545C33.7498 30.3545 29.4477 32.4308 26.7463 36.5833C24.145 40.6345 22.8444 46.762 22.8444 54.9657ZM136 54.9657C136 61.8528 135.05 67.9802 133.149 73.3481C131.348 78.716 128.696 83.2736 125.195 87.021C121.793 90.6671 117.641 93.4523 112.739 95.3766C107.836 97.1997 102.283 98.1112 96.0804 98.1112C90.3776 98.1112 85.075 97.1997 80.1726 95.3766C75.3702 93.4523 71.2182 90.6671 67.7165 87.021C64.2147 83.2736 61.4634 78.716 59.4624 73.3481C57.5615 67.9802 56.611 61.8528 56.611 54.9657C56.611 45.7491 58.2118 38.0012 61.4134 31.7218C64.6149 25.3411 69.2172 20.4797 75.2201 17.1374C81.2231 13.7951 88.3266 12.124 96.5306 12.124C104.234 12.124 111.038 13.7951 116.941 17.1374C122.844 20.4797 127.496 25.3411 130.897 31.7218C134.299 38.0012 136 45.7491 136 54.9657ZM79.4222 54.9657C79.4222 60.4348 79.9725 65.0431 81.073 68.7905C82.2736 72.4366 84.1245 75.2218 86.6257 77.1461C89.127 78.9692 92.3786 79.8807 96.3805 79.8807C100.383 79.8807 103.584 78.9692 105.985 77.1461C108.486 75.2218 110.287 72.4366 111.388 68.7905C112.589 65.0431 113.189 60.4348 113.189 54.9657C113.189 49.4965 112.589 44.9389 111.388 41.2928C110.287 37.6467 108.486 34.9121 105.985 33.0891C103.484 31.266 100.232 30.3545 96.2305 30.3545C90.3276 30.3545 86.0255 32.4308 83.3241 36.5833C80.7228 40.6345 79.4222 46.762 79.4222 54.9657Z" fill="#7C3AED"/>
<path d="M55.8945 24.7839V0.476562H80.2065V24.7839H55.8945Z" fill="#7C3AED"/>
<path d="M55.8945 106.796V82.4883H80.2065V106.796H55.8945Z" fill="#7C3AED"/>
</svg>
