<svg width="196" height="61" viewBox="0 0 196 61" fill="none" xmlns="http://www.w3.org/2000/svg">
<g filter="url(#filter0_d_321_1220)">
<path d="M17.5685 43.8795C14.9019 43.8795 12.5685 43.3628 10.5685 42.3295C8.60185 41.2628 7.08516 39.7628 6.01846 37.8295C4.95186 35.8961 4.41846 33.6128 4.41846 30.9795C4.41846 28.3461 4.95186 26.0795 6.01846 24.1795C7.08516 22.2795 8.60185 20.8295 10.5685 19.8295C12.5685 18.7961 14.9019 18.2795 17.5685 18.2795C19.1352 18.2795 20.7185 18.5128 22.3185 18.9795C23.9185 19.4461 25.2185 20.1128 26.2185 20.9795L24.1185 26.1795C23.2852 25.5128 22.3519 24.9961 21.3185 24.6295C20.2852 24.2295 19.2852 24.0295 18.3185 24.0295C16.3519 24.0295 14.8185 24.6461 13.7185 25.8795C12.6519 27.0795 12.1185 28.7961 12.1185 31.0295C12.1185 33.2295 12.6519 34.9628 13.7185 36.2295C14.8185 37.4628 16.3519 38.0795 18.3185 38.0795C19.2519 38.0795 20.2352 37.8961 21.2685 37.5295C22.3352 37.1628 23.2852 36.6295 24.1185 35.9295L26.2185 41.1295C25.2185 41.9961 23.9185 42.6795 22.3185 43.1795C20.7185 43.6461 19.1352 43.8795 17.5685 43.8795ZM85.4228 52.3295V18.7795H92.8228V22.4295C93.4898 21.1628 94.5067 20.1628 95.8727 19.4295C97.2727 18.6628 98.8398 18.2795 100.573 18.2795C102.707 18.2795 104.573 18.7961 106.173 19.8295C107.807 20.8628 109.073 22.3295 109.973 24.2295C110.873 26.1295 111.323 28.3961 111.323 31.0295C111.323 33.6628 110.873 35.9461 109.973 37.8795C109.073 39.7795 107.807 41.2628 106.173 42.3295C104.573 43.3628 102.707 43.8795 100.573 43.8795C98.9398 43.8795 97.4398 43.5295 96.0728 42.8295C94.7398 42.1295 93.7068 41.1961 92.9728 40.0295V52.3295H85.4228ZM98.3228 38.2295C99.9228 38.2295 101.223 37.6461 102.223 36.4795C103.223 35.3128 103.723 33.4961 103.723 31.0295C103.723 28.5961 103.223 26.8128 102.223 25.6795C101.223 24.5128 99.9228 23.9295 98.3228 23.9295C96.6898 23.9295 95.3728 24.5128 94.3728 25.6795C93.3728 26.8128 92.8728 28.5961 92.8728 31.0295C92.8728 33.4961 93.3728 35.3128 94.3728 36.4795C95.3728 37.6461 96.6898 38.2295 98.3228 38.2295ZM128.691 43.8795C125.791 43.8795 123.291 43.3628 121.191 42.3295C119.124 41.2628 117.524 39.7795 116.391 37.8795C115.291 35.9461 114.741 33.6795 114.741 31.0795C114.741 28.5461 115.274 26.3295 116.341 24.4295C117.441 22.4961 118.924 20.9961 120.791 19.9295C122.691 18.8295 124.874 18.2795 127.341 18.2795C130.908 18.2795 133.741 19.4128 135.841 21.6795C137.941 23.9128 138.991 26.9461 138.991 30.7795V32.6795H121.941C122.208 34.6128 122.908 36.0295 124.041 36.9295C125.208 37.7961 126.808 38.2295 128.841 38.2295C130.174 38.2295 131.524 38.0295 132.891 37.6295C134.258 37.2295 135.491 36.6128 136.591 35.7795L138.591 40.8295C137.358 41.7628 135.841 42.5128 134.041 43.0795C132.274 43.6128 130.491 43.8795 128.691 43.8795ZM127.641 23.2795C126.041 23.2795 124.741 23.7628 123.741 24.7295C122.774 25.6961 122.174 27.0461 121.941 28.7795H132.741C132.541 25.1128 130.841 23.2795 127.641 23.2795ZM143.382 43.3295V18.7795H150.782V23.0295C151.949 20.1628 154.449 18.5795 158.282 18.2795L160.482 18.1295L160.932 24.4795L156.682 24.9295C152.949 25.2961 151.082 27.1961 151.082 30.6295V43.3295H143.382Z" fill="#EAEAEA"/>
<path d="M17.5685 43.8795C14.9019 43.8795 12.5685 43.3628 10.5685 42.3295C8.60185 41.2628 7.08516 39.7628 6.01846 37.8295C4.95186 35.8961 4.41846 33.6128 4.41846 30.9795C4.41846 28.3461 4.95186 26.0795 6.01846 24.1795C7.08516 22.2795 8.60185 20.8295 10.5685 19.8295C12.5685 18.7961 14.9019 18.2795 17.5685 18.2795C19.1352 18.2795 20.7185 18.5128 22.3185 18.9795C23.9185 19.4461 25.2185 20.1128 26.2185 20.9795L24.1185 26.1795C23.2852 25.5128 22.3519 24.9961 21.3185 24.6295C20.2852 24.2295 19.2852 24.0295 18.3185 24.0295C16.3519 24.0295 14.8185 24.6461 13.7185 25.8795C12.6519 27.0795 12.1185 28.7961 12.1185 31.0295C12.1185 33.2295 12.6519 34.9628 13.7185 36.2295C14.8185 37.4628 16.3519 38.0795 18.3185 38.0795C19.2519 38.0795 20.2352 37.8961 21.2685 37.5295C22.3352 37.1628 23.2852 36.6295 24.1185 35.9295L26.2185 41.1295C25.2185 41.9961 23.9185 42.6795 22.3185 43.1795C20.7185 43.6461 19.1352 43.8795 17.5685 43.8795ZM85.4228 52.3295V18.7795H92.8228V22.4295C93.4898 21.1628 94.5067 20.1628 95.8727 19.4295C97.2727 18.6628 98.8398 18.2795 100.573 18.2795C102.707 18.2795 104.573 18.7961 106.173 19.8295C107.807 20.8628 109.073 22.3295 109.973 24.2295C110.873 26.1295 111.323 28.3961 111.323 31.0295C111.323 33.6628 110.873 35.9461 109.973 37.8795C109.073 39.7795 107.807 41.2628 106.173 42.3295C104.573 43.3628 102.707 43.8795 100.573 43.8795C98.9398 43.8795 97.4398 43.5295 96.0728 42.8295C94.7398 42.1295 93.7068 41.1961 92.9728 40.0295V52.3295H85.4228ZM98.3228 38.2295C99.9228 38.2295 101.223 37.6461 102.223 36.4795C103.223 35.3128 103.723 33.4961 103.723 31.0295C103.723 28.5961 103.223 26.8128 102.223 25.6795C101.223 24.5128 99.9228 23.9295 98.3228 23.9295C96.6898 23.9295 95.3728 24.5128 94.3728 25.6795C93.3728 26.8128 92.8728 28.5961 92.8728 31.0295C92.8728 33.4961 93.3728 35.3128 94.3728 36.4795C95.3728 37.6461 96.6898 38.2295 98.3228 38.2295ZM128.691 43.8795C125.791 43.8795 123.291 43.3628 121.191 42.3295C119.124 41.2628 117.524 39.7795 116.391 37.8795C115.291 35.9461 114.741 33.6795 114.741 31.0795C114.741 28.5461 115.274 26.3295 116.341 24.4295C117.441 22.4961 118.924 20.9961 120.791 19.9295C122.691 18.8295 124.874 18.2795 127.341 18.2795C130.908 18.2795 133.741 19.4128 135.841 21.6795C137.941 23.9128 138.991 26.9461 138.991 30.7795V32.6795H121.941C122.208 34.6128 122.908 36.0295 124.041 36.9295C125.208 37.7961 126.808 38.2295 128.841 38.2295C130.174 38.2295 131.524 38.0295 132.891 37.6295C134.258 37.2295 135.491 36.6128 136.591 35.7795L138.591 40.8295C137.358 41.7628 135.841 42.5128 134.041 43.0795C132.274 43.6128 130.491 43.8795 128.691 43.8795ZM127.641 23.2795C126.041 23.2795 124.741 23.7628 123.741 24.7295C122.774 25.6961 122.174 27.0461 121.941 28.7795H132.741C132.541 25.1128 130.841 23.2795 127.641 23.2795ZM143.382 43.3295V18.7795H150.782V23.0295C151.949 20.1628 154.449 18.5795 158.282 18.2795L160.482 18.1295L160.932 24.4795L156.682 24.9295C152.949 25.2961 151.082 27.1961 151.082 30.6295V43.3295H143.382Z" fill="#EAEAEA"/>
<path d="M58.3567 29.6295C58.3567 31.8961 58.0401 33.9128 57.4067 35.6795C56.8067 37.4461 55.9234 38.9461 54.7567 40.1795C53.6234 41.3795 52.2401 42.2961 50.6067 42.9295C48.9734 43.5295 47.1234 43.8295 45.0567 43.8295C43.1567 43.8295 41.3901 43.5295 39.7567 42.9295C38.1567 42.2961 36.7734 41.3795 35.6067 40.1795C34.4401 38.9461 33.5234 37.4461 32.8567 35.6795C32.2234 33.9128 31.9067 31.8961 31.9067 29.6295C31.9067 26.5961 32.4401 24.0461 33.5067 21.9795C34.5734 19.8795 36.1067 18.2795 38.1067 17.1795C40.1067 16.0795 42.4734 15.5295 45.2067 15.5295C47.7734 15.5295 50.0401 16.0795 52.0067 17.1795C53.9734 18.2795 55.5234 19.8795 56.6567 21.9795C57.7901 24.0461 58.3567 26.5961 58.3567 29.6295ZM39.5067 29.6295C39.5067 31.4295 39.6901 32.9461 40.0567 34.1795C40.4567 35.3795 41.0734 36.2961 41.9067 36.9295C42.7401 37.5295 43.8234 37.8295 45.1567 37.8295C46.4901 37.8295 47.5567 37.5295 48.3567 36.9295C49.1901 36.2961 49.7901 35.3795 50.1567 34.1795C50.5567 32.9461 50.7567 31.4295 50.7567 29.6295C50.7567 27.8295 50.5567 26.3295 50.1567 25.1295C49.7901 23.9295 49.1901 23.0295 48.3567 22.4295C47.5234 21.8295 46.4401 21.5295 45.1067 21.5295C43.1401 21.5295 41.7067 22.2128 40.8067 23.5795C39.9401 24.9128 39.5067 26.9295 39.5067 29.6295ZM77.2065 29.6295C77.2065 31.8961 76.8905 33.9128 76.2565 35.6795C75.6565 37.4461 74.7735 38.9461 73.6065 40.1795C72.4735 41.3795 71.0905 42.2961 69.4565 42.9295C67.8235 43.5295 65.9734 43.8295 63.9067 43.8295C62.0067 43.8295 60.2401 43.5295 58.6067 42.9295C57.0067 42.2961 55.6234 41.3795 54.4567 40.1795C53.2901 38.9461 52.3734 37.4461 51.7067 35.6795C51.0734 33.9128 50.7567 31.8961 50.7567 29.6295C50.7567 26.5961 51.2901 24.0461 52.3567 21.9795C53.4234 19.8795 54.9567 18.2795 56.9567 17.1795C58.9567 16.0795 61.3234 15.5295 64.0567 15.5295C66.6235 15.5295 68.8905 16.0795 70.8565 17.1795C72.8235 18.2795 74.3735 19.8795 75.5065 21.9795C76.6405 24.0461 77.2065 26.5961 77.2065 29.6295ZM58.3567 29.6295C58.3567 31.4295 58.5401 32.9461 58.9067 34.1795C59.3067 35.3795 59.9234 36.2961 60.7567 36.9295C61.5901 37.5295 62.6734 37.8295 64.0067 37.8295C65.3401 37.8295 66.4067 37.5295 67.2065 36.9295C68.0405 36.2961 68.6405 35.3795 69.0065 34.1795C69.4065 32.9461 69.6065 31.4295 69.6065 29.6295C69.6065 27.8295 69.4065 26.3295 69.0065 25.1295C68.6405 23.9295 68.0405 23.0295 67.2065 22.4295C66.3734 21.8295 65.2901 21.5295 63.9567 21.5295C61.9901 21.5295 60.5567 22.2128 59.6567 23.5795C58.7901 24.9128 58.3567 26.9295 58.3567 29.6295Z" fill="#7C3AED"/>
<path d="M50.2046 20.8983V12.8983H58.3046V20.8983H50.2046Z" fill="#7C3AED"/>
<path d="M50.2046 45.9009V37.9009H58.3046V45.9009H50.2046Z" fill="#7C3AED"/>
</g>
<rect x="167" y="0.898254" width="28.98" height="16" rx="6" fill="white" fill-opacity="0.25"/>
<path d="M169.176 11.8983L171.104 6.13825H172.096L174.024 11.8983H173.284L171.48 6.55425H171.704L169.916 11.8983H169.176ZM170.104 10.5503V9.88225H173.096V10.5503H170.104ZM174.82 11.8983V6.13825H175.532V11.2223H178.204V11.8983H174.82ZM178.88 11.8983V6.13825H181.156C181.212 6.13825 181.279 6.14092 181.356 6.14625C181.434 6.14892 181.508 6.15692 181.58 6.17025C181.892 6.21825 182.154 6.32492 182.364 6.49025C182.578 6.65559 182.738 6.86492 182.844 7.11825C182.951 7.36892 183.004 7.64759 183.004 7.95425C183.004 8.25825 182.95 8.53692 182.84 8.79025C182.734 9.04092 182.574 9.25025 182.36 9.41825C182.15 9.58359 181.89 9.69025 181.58 9.73825C181.508 9.74892 181.434 9.75692 181.356 9.76225C181.279 9.76759 181.212 9.77025 181.156 9.77025H179.592V11.8983H178.88ZM179.592 9.09425H181.132C181.183 9.09425 181.24 9.09159 181.304 9.08625C181.371 9.08092 181.434 9.07159 181.492 9.05825C181.676 9.01559 181.826 8.93825 181.94 8.82625C182.058 8.71159 182.143 8.57825 182.196 8.42625C182.25 8.27159 182.276 8.11425 182.276 7.95425C182.276 7.79425 182.25 7.63825 182.196 7.48625C182.143 7.33159 182.058 7.19692 181.94 7.08225C181.826 6.96759 181.676 6.89025 181.492 6.85025C181.434 6.83425 181.371 6.82492 181.304 6.82225C181.24 6.81692 181.183 6.81425 181.132 6.81425H179.592V9.09425ZM183.802 11.8983V6.13825H184.514V8.67825H187.546V6.13825H188.258V11.8983H187.546V9.35425H184.514V11.8983H183.802ZM188.98 11.8983L190.908 6.13825H191.9L193.828 11.8983H193.088L191.284 6.55425H191.508L189.72 11.8983H188.98ZM189.908 10.5503V9.88225H192.9V10.5503H189.908Z" fill="white"/>
<defs>
<filter id="filter0_d_321_1220" x="0.418457" y="12.8983" width="164.513" height="47.4312" filterUnits="userSpaceOnUse" color-interpolation-filters="sRGB">
<feFlood flood-opacity="0" result="BackgroundImageFix"/>
<feColorMatrix in="SourceAlpha" type="matrix" values="0 0 0 0 0 0 0 0 0 0 0 0 0 0 0 0 0 0 127 0" result="hardAlpha"/>
<feOffset dy="4"/>
<feGaussianBlur stdDeviation="2"/>
<feComposite in2="hardAlpha" operator="out"/>
<feColorMatrix type="matrix" values="0 0 0 0 0 0 0 0 0 0 0 0 0 0 0 0 0 0 0.25 0"/>
<feBlend mode="normal" in2="BackgroundImageFix" result="effect1_dropShadow_321_1220"/>
<feBlend mode="normal" in="SourceGraphic" in2="effect1_dropShadow_321_1220" result="shape"/>
</filter>
</defs>
</svg>
